<mxfile host="app.diagrams.net" modified="2024-05-22T06:28:18.246Z" agent="Mozilla/5.0 (Windows NT 10.0; Win64; x64) AppleWebKit/537.36 (KHTML, like Gecko) Chrome/124.0.0.0 Safari/537.36" version="24.4.0" etag="w54TN295kOENJyLXVPiy" type="github">
  <diagram name="第 1 页" id="1wKrEfXNvUTdLOAu9VIF">
    <mxGraphModel>
      <root>
        <mxCell id="0" />
        <mxCell id="1" parent="0" />
      </root>
    </mxGraphModel>
  </diagram>
</mxfile>
